<svg width="105" height="36" viewBox="0 0 105 36" fill="none" xmlns="http://www.w3.org/2000/svg">
<path d="M96.3677 0.915859H8.34284C8.02198 0.915859 7.70497 0.915859 7.38489 0.917609C7.11706 0.919359 6.85132 0.924434 6.58086 0.928721C5.99331 0.935633 5.40714 0.98732 4.82745 1.08333C4.24857 1.18144 3.68782 1.3664 3.16417 1.63196C2.64118 1.89978 2.16331 2.24777 1.7479 2.66332C1.3303 3.07766 0.982198 3.55659 0.716973 4.08169C0.451011 4.60579 0.266597 5.16741 0.1701 5.74716C0.0726781 6.32615 0.0202548 6.91182 0.0133 7.49891C0.00516249 7.76718 0.00428749 8.03633 0 8.30469V28.5296C0.00428749 28.8013 0.00516249 29.0645 0.0133 29.3363C0.0202614 29.9233 0.0726847 30.509 0.1701 31.0879C0.266338 31.6679 0.450763 32.2299 0.716973 32.7541C0.982071 33.2776 1.33022 33.7546 1.7479 34.1667C2.16173 34.584 2.63991 34.9323 3.16417 35.198C3.68781 35.4643 4.2485 35.6503 4.82745 35.75C5.40724 35.8452 5.99335 35.8969 6.58086 35.9047C6.85123 35.9106 7.11706 35.914 7.38498 35.914C7.70497 35.9158 8.02198 35.9158 8.34284 35.9158H96.3676C96.6822 35.9158 97.0017 35.9158 97.3161 35.914C97.5828 35.914 97.8563 35.9106 98.1229 35.9047C98.7093 35.8973 99.2943 35.8456 99.8729 35.75C100.454 35.6496 101.016 35.4636 101.543 35.198C102.066 34.9321 102.544 34.5839 102.958 34.1667C103.374 33.753 103.723 33.2763 103.991 32.7541C104.256 32.2295 104.438 31.6676 104.533 31.0879C104.631 30.5088 104.685 29.9233 104.696 29.3362C104.699 29.0645 104.699 28.8013 104.699 28.5296C104.706 28.2117 104.706 27.8955 104.706 27.5725V9.26001C104.706 8.9395 104.706 8.6217 104.699 8.30469C104.699 8.03633 104.699 7.76718 104.696 7.49882C104.685 6.91168 104.631 6.32614 104.533 5.74707C104.438 5.16772 104.255 4.6062 103.991 4.08178C103.451 3.02919 102.595 2.17238 101.543 1.63187C101.016 1.36696 100.454 1.18205 99.8729 1.08325C99.2944 0.986824 98.7093 0.935134 98.1229 0.928634C97.8563 0.924346 97.5828 0.919184 97.3161 0.917521C97.0017 0.915771 96.6822 0.915771 96.3676 0.915771L96.3677 0.915859Z" fill="#A6A6A6"/>
<path d="M7.38916 35.1501C7.12255 35.1501 6.86241 35.1467 6.5979 35.1408C6.04998 35.1337 5.50333 35.086 4.96244 34.9982C4.45809 34.9113 3.96952 34.7497 3.51284 34.5187C3.06032 34.2896 2.6476 33.9893 2.29046 33.6291C1.92813 33.2733 1.62647 32.8605 1.39744 32.4072C1.16591 31.951 1.00567 31.4619 0.922317 30.9572C0.83233 30.4148 0.783657 29.8663 0.776717 29.3165C0.771117 29.132 0.763855 28.5177 0.763855 28.5177V8.3046C0.763855 8.3046 0.771555 7.69963 0.776717 7.52183C0.783384 6.97295 0.831795 6.42537 0.92153 5.88384C1.00505 5.37767 1.16542 4.88723 1.39709 4.4295C1.62525 3.97651 1.92519 3.56343 2.2853 3.20626C2.64503 2.84569 3.0591 2.54379 3.5124 2.31157C3.96804 2.08136 4.4557 1.92093 4.95903 1.83566C5.5017 1.74695 6.05026 1.69901 6.60009 1.69225L7.3896 1.6814H97.312L98.1109 1.69251C98.6557 1.69898 99.1993 1.74654 99.737 1.83478C100.245 1.92115 100.738 2.08272 101.199 2.31419C102.107 2.78218 102.846 3.52257 103.312 4.4316C103.54 4.88619 103.698 5.37265 103.781 5.87447C103.871 6.42044 103.922 6.97231 103.933 7.52568C103.935 7.77348 103.935 8.03965 103.935 8.3046C103.942 8.63273 103.942 8.94501 103.942 9.25993V27.5724C103.942 27.8903 103.942 28.2005 103.935 28.5132C103.935 28.7978 103.935 29.0584 103.932 29.3267C103.921 29.8702 103.871 30.4123 103.782 30.9485C103.7 31.4569 103.541 31.9498 103.31 32.4097C103.079 32.8581 102.779 33.2673 102.421 33.6222C102.064 33.9843 101.65 34.2864 101.197 34.5169C100.737 34.7497 100.245 34.9118 99.737 34.998C99.1962 35.0863 98.6495 35.134 98.1015 35.1407C97.8398 35.1468 97.578 35.1499 97.3163 35.1501L96.3678 35.1518L7.38916 35.1501Z" fill="black"/>
<path d="M21.6728 18.6789C21.6822 17.9486 21.8762 17.2325 22.2367 16.5973C22.5972 15.9621 23.1125 15.4284 23.7347 15.0459C23.3394 14.4814 22.818 14.0168 22.2118 13.6891C21.6056 13.3614 20.9313 13.1795 20.2425 13.1579C18.7731 13.0037 17.3487 14.0371 16.5999 14.0371C15.8367 14.0371 14.6839 13.1732 13.4425 13.1988C12.6396 13.2247 11.857 13.4582 11.1711 13.8765C10.4852 14.2948 9.91934 14.8836 9.52867 15.5856C7.83642 18.5155 9.09869 22.8214 10.7198 25.1897C11.5308 26.3494 12.4786 27.6447 13.7189 27.5988C14.9326 27.5485 15.3858 26.8249 16.8509 26.8249C18.3024 26.8249 18.7276 27.5988 19.993 27.5696C21.2954 27.5485 22.1159 26.4048 22.8985 25.2341C23.4812 24.4078 23.9296 23.4946 24.2271 22.5282C23.4704 22.2082 22.8248 21.6725 22.3705 20.988C21.9163 20.3035 21.6736 19.5004 21.6728 18.6789ZM19.2826 11.6003C19.9927 10.7479 20.3425 9.65226 20.2578 8.54607C19.173 8.66001 18.1708 9.17849 17.4512 9.99822C17.0993 10.3987 16.8298 10.8646 16.6581 11.3692C16.4864 11.8739 16.4158 12.4075 16.4504 12.9394C16.9931 12.945 17.5299 12.8274 18.0205 12.5955C18.511 12.3635 18.9426 12.0233 19.2826 11.6003ZM37.0145 24.663H32.8727L31.8781 27.5998H30.1238L34.0468 16.7341H35.8694L39.7924 27.5998H38.0082L37.0145 24.663ZM33.3017 23.3077H36.5847L34.9663 18.5414H34.9209L33.3017 23.3077ZM48.2646 23.6393C48.2646 26.1011 46.947 27.6827 44.9586 27.6827C44.4549 27.7091 43.954 27.593 43.5132 27.3479C43.0723 27.1028 42.7094 26.7385 42.466 26.2967H42.4284V30.2206H40.8023V19.6779H42.3764V20.9955H42.4063C42.6609 20.5559 43.0299 20.1935 43.474 19.9468C43.9182 19.7002 44.4209 19.5786 44.9287 19.595C46.9393 19.595 48.2646 21.1844 48.2646 23.6393V23.6393ZM46.5932 23.6393C46.5932 22.0355 45.7644 20.981 44.4998 20.981C43.2573 20.981 42.4217 22.0576 42.4217 23.6393C42.4217 25.2355 43.2573 26.3045 44.4998 26.3045C45.7644 26.3045 46.5932 25.2577 46.5932 23.6393V23.6393ZM56.9838 23.6393C56.9838 26.1011 55.6663 27.6827 53.6778 27.6827C53.1741 27.7091 52.6732 27.593 52.2324 27.3479C51.7916 27.1028 51.4287 26.7385 51.1853 26.2967H51.1477V30.2206H49.5216V19.6779H51.0955V20.9955H51.1255C51.38 20.5559 51.749 20.1935 52.1932 19.9468C52.6374 19.7002 53.1401 19.5786 53.6479 19.595C55.6586 19.595 56.9838 21.1844 56.9838 23.6393V23.6393ZM55.3125 23.6393C55.3125 22.0355 54.4836 20.981 53.219 20.981C51.9765 20.981 51.1409 22.0576 51.1409 23.6393C51.1409 25.2355 51.9765 26.3045 53.219 26.3045C54.4836 26.3045 55.3125 25.2577 55.3125 23.6393V23.6393ZM62.7466 24.5724C62.8671 25.6499 63.9138 26.3574 65.3442 26.3574C66.7148 26.3574 67.7009 25.6499 67.7009 24.6783C67.7009 23.8349 67.1062 23.3299 65.698 22.9839L64.2897 22.6446C62.2945 22.1627 61.3683 21.2296 61.3683 19.7154C61.3683 17.8406 63.0021 16.553 65.3219 16.553C67.6179 16.553 69.192 17.8406 69.2449 19.7154H67.6034C67.5052 18.6311 66.6088 17.9765 65.2988 17.9765C63.989 17.9765 63.0926 18.6388 63.0926 19.6026C63.0926 20.3709 63.6651 20.8229 65.0656 21.1689L66.2627 21.4629C68.4921 21.9901 69.4184 22.8856 69.4184 24.4749C69.4184 26.5078 67.7991 27.781 65.2237 27.781C62.8139 27.781 61.1871 26.5376 61.082 24.5724L62.7466 24.5724ZM72.9278 17.8032V19.6779H74.4343V20.9656H72.9278V25.3329C72.9278 26.0114 73.2294 26.3275 73.8917 26.3275C74.0705 26.3244 74.249 26.3118 74.4266 26.2899V27.57C74.1288 27.6256 73.8262 27.6508 73.5234 27.6451C71.9195 27.6451 71.294 27.0427 71.294 25.5063V20.9656H70.1421V19.6779H71.294V17.8032H72.9278ZM75.3067 23.6393C75.3067 21.1467 76.7747 19.5805 79.064 19.5805C81.3608 19.5805 82.822 21.1467 82.822 23.6393C82.822 26.1387 81.3684 27.6981 79.0639 27.6981C76.7602 27.6981 75.3067 26.1387 75.3067 23.6393ZM81.1651 23.6393C81.1651 21.9295 80.3815 20.9203 79.0639 20.9203C77.7463 20.9203 76.9635 21.9371 76.9635 23.6393C76.9635 25.356 77.7463 26.3574 79.0639 26.3574C80.3815 26.3574 81.1651 25.356 81.1651 23.6393ZM84.1626 19.6779H85.7135V21.0263H85.7511C85.8561 20.6051 86.1028 20.233 86.4498 19.9723C86.7968 19.7117 87.223 19.5784 87.6567 19.595C87.8441 19.5944 88.031 19.6147 88.2138 19.6557V21.1767C87.9772 21.1044 87.7305 21.0712 87.4832 21.0784C87.247 21.0688 87.0115 21.1105 86.7928 21.2005C86.5742 21.2905 86.3777 21.4268 86.2167 21.5999C86.0557 21.7731 85.9341 21.979 85.8603 22.2036C85.7864 22.4282 85.762 22.6661 85.7888 22.901V27.5998H84.1626V19.6779ZM95.7111 25.2731C95.4923 26.7112 94.0918 27.6981 92.3 27.6981C89.9954 27.6981 88.5649 26.1541 88.5649 23.6769C88.5649 21.1921 90.0031 19.5805 92.2315 19.5805C94.4234 19.5805 95.8016 21.0861 95.8016 23.4881V24.0452H90.2064V24.1434C90.1806 24.435 90.2171 24.7287 90.3135 25.0051C90.4099 25.2814 90.564 25.5341 90.7656 25.7463C90.9671 25.9586 91.2115 26.1255 91.4826 26.236C91.7536 26.3465 92.045 26.3981 92.3375 26.3874C92.7218 26.4234 93.1074 26.3344 93.4371 26.1336C93.7667 25.9328 94.0227 25.631 94.167 25.2731H95.7111ZM90.2141 22.9087H94.1747C94.1893 22.6466 94.1495 22.3842 94.0579 22.1382C93.9663 21.8921 93.8249 21.6676 93.6424 21.4788C93.46 21.29 93.2404 21.141 92.9977 21.041C92.7549 20.9411 92.494 20.8924 92.2315 20.8981C91.9667 20.8965 91.7043 20.9474 91.4592 21.0478C91.2142 21.1482 90.9915 21.2961 90.8039 21.4831C90.6163 21.67 90.4677 21.8922 90.3664 22.1369C90.2652 22.3816 90.2135 22.6439 90.2141 22.9087ZM33.0979 8.55543C33.4388 8.53096 33.7809 8.58246 34.0995 8.70622C34.4181 8.82997 34.7053 9.0229 34.9403 9.27108C35.1753 9.51926 35.3523 9.8165 35.4585 10.1414C35.5647 10.4662 35.5975 10.8106 35.5545 11.1497C35.5545 12.8176 34.653 13.7765 33.0979 13.7765H31.212V8.55534L33.0979 8.55543ZM32.0229 13.038H33.0073C33.2509 13.0526 33.4947 13.0126 33.7209 12.9211C33.9471 12.8296 34.1501 12.6887 34.315 12.5089C34.4799 12.329 34.6027 12.1146 34.6743 11.8813C34.7459 11.648 34.7646 11.4017 34.729 11.1603C34.762 10.9198 34.7414 10.675 34.6687 10.4435C34.596 10.2119 34.4729 9.99925 34.3084 9.82082C34.1438 9.64238 33.9419 9.50254 33.7169 9.41133C33.492 9.32012 33.2497 9.27979 33.0073 9.29323H32.0229V13.038ZM36.4706 11.8046C36.4458 11.5457 36.4754 11.2845 36.5575 11.0377C36.6396 10.7909 36.7724 10.5639 36.9473 10.3714C37.1223 10.179 37.3355 10.0252 37.5734 9.91991C37.8113 9.81467 38.0685 9.76031 38.3286 9.76031C38.5887 9.76031 38.846 9.81467 39.0838 9.91991C39.3217 10.0252 39.5349 10.179 39.7099 10.3714C39.8848 10.5639 40.0176 10.7909 40.0997 11.0377C40.1818 11.2845 40.2114 11.5457 40.1867 11.8046C40.212 12.0639 40.1828 12.3255 40.1009 12.5728C40.0191 12.8201 39.8864 13.0475 39.7114 13.2404C39.5364 13.4333 39.3229 13.5875 39.0848 13.693C38.8467 13.7985 38.5891 13.853 38.3286 13.853C38.0681 13.853 37.8106 13.7985 37.5724 13.693C37.3343 13.5875 37.1209 13.4333 36.9459 13.2404C36.7709 13.0475 36.6382 12.8201 36.5563 12.5728C36.4744 12.3255 36.4452 12.0639 36.4706 11.8046ZM39.3869 11.8046C39.3869 10.9506 39.0032 10.4511 38.3299 10.4511C37.654 10.4511 37.2738 10.9506 37.2738 11.8046C37.2738 12.6656 37.6541 13.1612 38.3299 13.1612C39.0032 13.1612 39.3869 12.6621 39.3869 11.8046ZM45.1266 13.7764H44.3198L43.5055 10.8745H43.444L42.6332 13.7764H41.8342L40.7482 9.83625H41.5368L42.2427 12.8427H42.3008L43.1108 9.83625H43.8568L44.6668 12.8427H44.7283L45.4307 9.83625H46.2083L45.1266 13.7764ZM47.1217 9.83634H47.8703V10.4622H47.9284C48.027 10.2374 48.1932 10.0489 48.404 9.9231C48.6148 9.79726 48.8595 9.74032 49.1042 9.76022C49.2959 9.74581 49.4884 9.77472 49.6674 9.8448C49.8465 9.91489 50.0074 10.0244 50.1384 10.1651C50.2694 10.3058 50.367 10.4742 50.424 10.6578C50.4811 10.8414 50.4961 11.0355 50.468 11.2257V13.7763H49.6904V11.421C49.6904 10.7878 49.4152 10.4729 48.8401 10.4729C48.71 10.4668 48.58 10.489 48.4593 10.5379C48.3385 10.5867 48.2297 10.6611 48.1403 10.7559C48.0509 10.8508 47.9831 10.9638 47.9416 11.0873C47.9 11.2108 47.8856 11.3418 47.8993 11.4714V13.7764H47.1217V9.83634ZM51.707 8.29818H52.4845V13.7764H51.707V8.29818ZM53.5655 11.8046C53.5407 11.5457 53.5703 11.2844 53.6524 11.0376C53.7346 10.7907 53.8674 10.5638 54.0423 10.3712C54.2173 10.1787 54.4306 10.0249 54.6685 9.91966C54.9064 9.8144 55.1636 9.76003 55.4238 9.76003C55.6839 9.76003 55.9412 9.8144 56.1791 9.91966C56.417 10.0249 56.6303 10.1787 56.8053 10.3712C56.9802 10.5638 57.113 10.7907 57.1952 11.0376C57.2773 11.2844 57.3069 11.5457 57.2821 11.8046C57.3073 12.0638 57.278 12.3254 57.196 12.5726C57.1141 12.8198 56.9814 13.0471 56.8064 13.24C56.6314 13.4328 56.4179 13.5869 56.1798 13.6923C55.9417 13.7978 55.6842 13.8523 55.4238 13.8523C55.1634 13.8523 54.9059 13.7978 54.6677 13.6923C54.4296 13.5869 54.2162 13.4328 54.0412 13.24C53.8662 13.0471 53.7335 12.8198 53.6515 12.5726C53.5696 12.3254 53.5403 12.0638 53.5655 11.8046ZM56.4818 11.8046C56.4818 10.9506 56.0982 10.4511 55.4248 10.4511C54.7489 10.4511 54.3687 10.9506 54.3687 11.8046C54.3687 12.6656 54.749 13.1612 55.4248 13.1612C56.0982 13.1612 56.4818 12.6621 56.4818 11.8046ZM58.1007 12.6621C58.1007 11.9529 58.6287 11.544 59.5661 11.4859L60.6334 11.4244V11.0843C60.6334 10.6681 60.3583 10.4332 59.8268 10.4332C59.3927 10.4332 59.0919 10.5925 59.0056 10.8711H58.2528C58.3322 10.1943 58.9688 9.7603 59.8627 9.7603C60.8504 9.7603 61.4076 10.2521 61.4076 11.0843V13.7764H60.659V13.2227H60.5975C60.4726 13.4213 60.2973 13.5832 60.0893 13.6919C59.8814 13.8006 59.6484 13.8521 59.414 13.8413C59.2486 13.8585 59.0815 13.8408 58.9233 13.7895C58.7651 13.7381 58.6195 13.6542 58.4958 13.5431C58.372 13.432 58.2729 13.2962 58.2049 13.1445C58.1368 12.9927 58.1013 12.8284 58.1007 12.6621ZM60.6334 12.3254V11.996L59.6712 12.0575C59.1286 12.0938 58.8825 12.2785 58.8825 12.6257C58.8825 12.9804 59.1901 13.1868 59.6131 13.1868C59.7371 13.1993 59.8623 13.1868 59.9813 13.15C60.1003 13.1132 60.2107 13.0528 60.3058 12.9724C60.401 12.8921 60.4791 12.7934 60.5353 12.6822C60.5916 12.5711 60.6249 12.4497 60.6334 12.3254ZM62.4296 11.8046C62.4296 10.5596 63.0695 9.77098 64.065 9.77098C64.3113 9.75963 64.5556 9.8186 64.7696 9.94101C64.9836 10.0634 65.1583 10.2442 65.2733 10.4622H65.3314V8.2981H66.1089V13.7763H65.3639V13.1537H65.3023C65.1785 13.3703 64.9977 13.5488 64.7796 13.67C64.5615 13.7912 64.3144 13.8504 64.0651 13.8412C63.0627 13.8412 62.4296 13.0525 62.4296 11.8046V11.8046ZM63.2328 11.8046C63.2328 12.6403 63.6267 13.1432 64.2854 13.1432C64.9408 13.1432 65.3459 12.6331 65.3459 11.808C65.3459 10.9869 64.9366 10.4695 64.2854 10.4695C63.6309 10.4695 63.2328 10.9758 63.2328 11.8046ZM69.3261 11.8046C69.3013 11.5457 69.3309 11.2845 69.4131 11.0377C69.4952 10.7909 69.6279 10.5639 69.8029 10.3714C69.9778 10.179 70.1911 10.0252 70.429 9.91991C70.6668 9.81467 70.9241 9.76031 71.1842 9.76031C71.4443 9.76031 71.7015 9.81467 71.9394 9.91991C72.1773 10.0252 72.3905 10.179 72.5654 10.3714C72.7404 10.5639 72.8732 10.7909 72.9553 11.0377C73.0374 11.2845 73.067 11.5457 73.0422 11.8046C73.0675 12.0639 73.0383 12.3255 72.9565 12.5728C72.8746 12.8201 72.7419 13.0475 72.5669 13.2404C72.3919 13.4333 72.1785 13.5875 71.9404 13.693C71.7022 13.7985 71.4446 13.853 71.1842 13.853C70.9237 13.853 70.6661 13.7985 70.428 13.693C70.1898 13.5875 69.9764 13.4333 69.8014 13.2404C69.6264 13.0475 69.4937 12.8201 69.4119 12.5728C69.33 12.3255 69.3008 12.0639 69.3261 11.8046ZM72.2425 11.8046C72.2425 10.9506 71.8588 10.4511 71.1855 10.4511C70.5095 10.4511 70.1294 10.9506 70.1294 11.8046C70.1294 12.6656 70.5096 13.1612 71.1855 13.1612C71.8588 13.1612 72.2425 12.6621 72.2425 11.8046ZM74.0856 9.83634H74.8341V10.4622H74.8922C74.9908 10.2374 75.1571 10.0489 75.3678 9.9231C75.5786 9.79726 75.8234 9.74032 76.0681 9.76022C76.2598 9.74581 76.4523 9.77472 76.6313 9.8448C76.8103 9.91489 76.9713 10.0244 77.1022 10.1651C77.2332 10.3058 77.3308 10.4742 77.3879 10.6578C77.4449 10.8414 77.46 11.0355 77.4318 11.2257V13.7763H76.6542V11.421C76.6542 10.7878 76.379 10.4729 75.804 10.4729C75.6738 10.4668 75.5439 10.489 75.4231 10.5379C75.3023 10.5867 75.1935 10.6611 75.1041 10.7559C75.0148 10.8508 74.947 10.9638 74.9054 11.0873C74.8638 11.2108 74.8494 11.3418 74.8632 11.4714V13.7764H74.0857L74.0856 9.83634ZM81.8256 8.85538V9.85428H82.6793V10.5092H81.8256V12.5352C81.8256 12.9479 81.9956 13.1287 82.3827 13.1287C82.4818 13.1284 82.5808 13.1223 82.6792 13.1107V13.7584C82.5396 13.7834 82.3981 13.7967 82.2562 13.7982C81.3915 13.7982 81.0471 13.4939 81.0471 12.7343V10.5092H80.4217V9.85419H81.0471V8.85547L81.8256 8.85538ZM83.7413 8.29818H84.5121V10.4695H84.5736C84.677 10.2426 84.8478 10.053 85.0628 9.92673C85.2778 9.80042 85.5265 9.74347 85.775 9.76363C85.9657 9.75325 86.1564 9.78509 86.3334 9.85688C86.5104 9.92867 86.6694 10.0386 86.799 10.1789C86.9286 10.3192 87.0256 10.4864 87.0832 10.6686C87.1408 10.8507 87.1574 11.0433 87.132 11.2326V13.7764H86.3536V11.4244C86.3536 10.795 86.0604 10.4763 85.511 10.4763C85.3774 10.4654 85.243 10.4837 85.1172 10.5302C84.9914 10.5766 84.8772 10.6499 84.7827 10.7451C84.6882 10.8402 84.6157 10.9549 84.5701 11.081C84.5246 11.2071 84.5071 11.3416 84.519 11.4752V13.7764H83.7413V8.29818ZM91.6659 12.7125C91.5603 13.0726 91.3314 13.3841 91.0193 13.5925C90.7072 13.8009 90.3317 13.8929 89.9586 13.8524C89.6991 13.8593 89.4411 13.8095 89.2027 13.7067C88.9642 13.6039 88.751 13.4504 88.5778 13.2569C88.4047 13.0634 88.2757 12.8345 88.1998 12.5862C88.124 12.3378 88.1031 12.076 88.1386 11.8187C88.104 11.5607 88.1253 11.2983 88.2009 11.0492C88.2766 10.8001 88.4049 10.5701 88.5772 10.3749C88.7494 10.1797 88.9616 10.0238 89.1994 9.91777C89.4371 9.81172 89.6949 9.75798 89.9552 9.76022C91.0515 9.76022 91.7129 10.5092 91.7129 11.7465V12.0178H88.9307V12.0614C88.9185 12.206 88.9367 12.3515 88.9841 12.4887C89.0314 12.6258 89.1069 12.7516 89.2057 12.8578C89.3045 12.9641 89.4244 13.0486 89.5577 13.1058C89.6911 13.163 89.8349 13.1917 89.98 13.1901C90.166 13.2125 90.3544 13.179 90.5214 13.0939C90.6883 13.0089 90.8261 12.8761 90.9174 12.7125H91.6659ZM88.9307 11.4428H90.9208C90.9306 11.3105 90.9126 11.1777 90.868 11.0528C90.8234 10.9279 90.7532 10.8138 90.6619 10.7176C90.5706 10.6215 90.4601 10.5456 90.3377 10.4947C90.2152 10.4438 90.0835 10.419 89.951 10.4221C89.8165 10.4204 89.683 10.4456 89.5584 10.4963C89.4338 10.547 89.3207 10.6221 89.2256 10.7173C89.1305 10.8124 89.0554 10.9256 89.0048 11.0502C88.9541 11.1748 88.9289 11.3083 88.9307 11.4428Z" fill="white"/>
</svg>
