<svg width="20" height="20" viewBox="0 0 20 20" fill="none" xmlns="http://www.w3.org/2000/svg">
<path d="M8.37499 2.10834L3.35832 5.38334C1.74999 6.43334 1.74999 8.78334 3.35832 9.83334L8.37499 13.1083C9.27499 13.7 10.7583 13.7 11.6583 13.1083L16.65 9.83334C18.25 8.78334 18.25 6.44168 16.65 5.39168L11.6583 2.11668C10.7583 1.51668 9.27499 1.51668 8.37499 2.10834Z" stroke="#C4C4C4" stroke-width="1.5" stroke-linecap="round" stroke-linejoin="round"/>
<path d="M4.69165 10.9L4.68332 14.8083C4.68332 15.8667 5.49999 17 6.49999 17.3333L9.15832 18.2167C9.61665 18.3667 10.375 18.3667 10.8417 18.2167L13.5 17.3333C14.5 17 15.3167 15.8667 15.3167 14.8083V10.9417" stroke="#C4C4C4" stroke-width="1.5" stroke-linecap="round" stroke-linejoin="round"/>
<path d="M17.8333 12.5V7.5" stroke="#C4C4C4" stroke-width="1.5" stroke-linecap="round" stroke-linejoin="round"/>
</svg>
