<svg width="18" height="18" viewBox="0 0 18 18" fill="none" xmlns="http://www.w3.org/2000/svg">
<path d="M1.5 9.82501L3.375 8.70001C4.53 8.01001 5.97 8.01001 7.125 8.70001C8.28 9.39001 9.72 9.39001 10.875 8.70001C12.03 8.01001 13.47 8.01001 14.625 8.70001L16.5 9.82501" stroke="#BDBDBD" stroke-width="1.5" stroke-miterlimit="10" stroke-linecap="round" stroke-linejoin="round"/>
<path d="M1.5 2.92499L3.375 4.04999C4.53 4.73999 5.97 4.73999 7.125 4.04999C8.28 3.35999 9.72 3.35999 10.875 4.04999C12.03 4.73999 13.47 4.73999 14.625 4.04999L16.5 2.92499" stroke="#BDBDBD" stroke-width="1.5" stroke-miterlimit="10" stroke-linecap="round" stroke-linejoin="round"/>
<path d="M1.5 15.075L3.375 13.95C4.53 13.26 5.97 13.26 7.125 13.95C8.28 14.64 9.72 14.64 10.875 13.95C12.03 13.26 13.47 13.26 14.625 13.95L16.5 15.075" stroke="#BDBDBD" stroke-width="1.5" stroke-miterlimit="10" stroke-linecap="round" stroke-linejoin="round"/>
</svg>
