<svg width="24" height="25" viewBox="0 0 24 25" fill="none" xmlns="http://www.w3.org/2000/svg">
<path d="M9.00002 22.1819H15C20 22.1819 22 20.1819 22 15.1819V9.18189C22 4.18189 20 2.18188 15 2.18188H9.00002C4.00002 2.18188 2.00002 4.18189 2.00002 9.18189V15.1819C2.00002 20.1819 4.00002 22.1819 9.00002 22.1819Z" stroke="#E7513B" stroke-width="1.5" stroke-linecap="round" stroke-linejoin="round"/>
<path d="M14.3511 11.092C14.2511 11.802 13.8311 12.402 13.2511 12.762V14.742C13.2511 15.432 12.6911 15.992 12.0011 15.992C11.3111 15.992 10.7511 15.432 10.7511 14.742V12.762C10.1711 12.402 9.75109 11.802 9.65109 11.092C9.63109 10.982 9.62109 10.862 9.62109 10.742C9.62109 9.222 11.0611 8.042 12.6411 8.462C13.4411 8.672 14.0911 9.32201 14.3011 10.122C14.3911 10.452 14.4011 10.782 14.3511 11.092Z" stroke="#E7513B" stroke-width="1.5" stroke-miterlimit="10"/>
<path d="M22.0016 11.092H14.3516" stroke="#E7513B" stroke-width="1.5" stroke-miterlimit="10"/>
<path d="M9.65001 11.0919H2.00002" stroke="#E7513B" stroke-width="1.5" stroke-miterlimit="10"/>
</svg>
