<svg width="119" height="36" viewBox="0 0 119 36" fill="none" xmlns="http://www.w3.org/2000/svg">
<path d="M113.75 35.9158H4.375C1.925 35.9158 0 33.9908 0 31.5408V5.29077C0 2.84077 1.925 0.915771 4.375 0.915771H113.75C116.2 0.915771 118.125 2.84077 118.125 5.29077V31.5408C118.125 33.9908 116.2 35.9158 113.75 35.9158Z" fill="black"/>
<path d="M113.75 1.61577C115.762 1.61577 117.425 3.27827 117.425 5.29077V31.5408C117.425 33.5533 115.762 35.2158 113.75 35.2158H4.375C2.3625 35.2158 0.7 33.5533 0.7 31.5408V5.29077C0.7 3.27827 2.3625 1.61577 4.375 1.61577H113.75ZM113.75 0.915771H4.375C1.925 0.915771 0 2.92827 0 5.29077V31.5408C0 33.9908 1.925 35.9158 4.375 35.9158H113.75C116.2 35.9158 118.125 33.9908 118.125 31.5408V5.29077C118.125 2.92827 116.2 0.915771 113.75 0.915771Z" fill="#A6A6A6"/>
<path d="M41.4751 9.84062C41.4751 10.5406 41.3001 11.1531 40.8626 11.5906C40.3376 12.1156 39.7251 12.3781 38.9376 12.3781C38.1501 12.3781 37.5375 12.1156 37.0125 11.5906C36.4875 11.0656 36.2251 10.4531 36.2251 9.66562C36.2251 8.87812 36.4875 8.26562 37.0125 7.74063C37.5375 7.21563 38.1501 6.95312 38.9376 6.95312C39.2876 6.95312 39.6376 7.04062 39.9876 7.21562C40.3376 7.39062 40.6 7.56562 40.775 7.82812L40.3375 8.26562C39.9875 7.82812 39.5501 7.65312 38.9376 7.65312C38.4126 7.65312 37.8876 7.82812 37.5376 8.26562C37.1001 8.61562 36.9251 9.14062 36.9251 9.75312C36.9251 10.3656 37.1001 10.8906 37.5376 11.2406C37.9751 11.5906 38.4126 11.8531 38.9376 11.8531C39.5501 11.8531 39.9876 11.6781 40.4251 11.2406C40.6876 10.9781 40.8626 10.6281 40.8626 10.1906H38.9376V9.49062H41.4751V9.84062ZM45.5 7.65312H43.1375V9.31563H45.325V9.92812H43.1375V11.5906H45.5V12.2906H42.4376V7.04062H45.5V7.65312ZM48.3875 12.2906H47.6875V7.65312H46.2V7.04062H49.875V7.65312H48.3875V12.2906ZM52.4125 12.2906V7.04062H53.1126V12.2906H52.4125ZM56.0875 12.2906H55.3875V7.65312H53.9V7.04062H57.4875V7.65312H56V12.2906H56.0875ZM64.4 11.5906C63.875 12.1156 63.2626 12.3781 62.475 12.3781C61.6875 12.3781 61.075 12.1156 60.55 11.5906C60.025 11.0656 59.7626 10.4531 59.7626 9.66562C59.7626 8.87812 60.025 8.26562 60.55 7.74063C61.075 7.21563 61.6875 6.95312 62.475 6.95312C63.2626 6.95312 63.875 7.21563 64.4 7.74063C64.925 8.26562 65.1875 8.87812 65.1875 9.66562C65.1875 10.4531 64.925 11.0656 64.4 11.5906ZM61.0751 11.1531C61.4251 11.5031 61.9501 11.7656 62.475 11.7656C63 11.7656 63.525 11.5906 63.875 11.1531C64.225 10.8031 64.4875 10.2781 64.4875 9.66562C64.4875 9.05312 64.3125 8.52812 63.875 8.17813C63.525 7.82812 63 7.56562 62.475 7.56562C61.9501 7.56562 61.4251 7.74063 61.0751 8.17813C60.7251 8.52812 60.4625 9.05312 60.4625 9.66562C60.4625 10.2781 60.6376 10.8031 61.0751 11.1531ZM66.15 12.2906V7.04062H66.9375L69.475 11.1531V7.04062H70.175V12.2906H69.475L66.7626 8.00313V12.2906H66.15Z" fill="white" stroke="white" stroke-width="0.2" stroke-miterlimit="10"/>
<path d="M59.5875 19.9907C57.4875 19.9907 55.825 21.5657 55.825 23.7532C55.825 25.8532 57.4875 27.5157 59.5875 27.5157C61.6875 27.5157 63.35 25.9407 63.35 23.7532C63.35 21.4782 61.6875 19.9907 59.5875 19.9907ZM59.5875 25.9407C58.45 25.9407 57.4875 24.9782 57.4875 23.6657C57.4875 22.3532 58.45 21.3907 59.5875 21.3907C60.725 21.3907 61.6875 22.2657 61.6875 23.6657C61.6875 24.9782 60.725 25.9407 59.5875 25.9407ZM51.45 19.9907C49.35 19.9907 47.6875 21.5657 47.6875 23.7532C47.6875 25.8532 49.35 27.5157 51.45 27.5157C53.55 27.5157 55.2125 25.9407 55.2125 23.7532C55.2125 21.4782 53.55 19.9907 51.45 19.9907ZM51.45 25.9407C50.3125 25.9407 49.35 24.9782 49.35 23.6657C49.35 22.3532 50.3125 21.3907 51.45 21.3907C52.5875 21.3907 53.55 22.2657 53.55 23.6657C53.55 24.9782 52.5875 25.9407 51.45 25.9407ZM41.7375 21.1282V22.7032H45.5C45.4125 23.5782 45.0625 24.2782 44.625 24.7157C44.1 25.2407 43.225 25.8532 41.7375 25.8532C39.375 25.8532 37.625 24.0157 37.625 21.6532C37.625 19.2907 39.4625 17.4532 41.7375 17.4532C42.9625 17.4532 43.925 17.9782 44.625 18.5907L45.7625 17.4532C44.8 16.5782 43.575 15.8782 41.825 15.8782C38.675 15.8782 35.9625 18.5032 35.9625 21.6532C35.9625 24.8032 38.675 27.4282 41.825 27.4282C43.575 27.4282 44.8 26.9032 45.85 25.7657C46.9 24.7157 47.25 23.2282 47.25 22.0907C47.25 21.7407 47.25 21.3907 47.1625 21.1282H41.7375ZM81.4625 22.3532C81.1125 21.4782 80.2375 19.9907 78.3125 19.9907C76.3875 19.9907 74.8125 21.4782 74.8125 23.7532C74.8125 25.8532 76.3875 27.5157 78.4875 27.5157C80.15 27.5157 81.2 26.4657 81.55 25.8532L80.325 24.9782C79.8875 25.5907 79.3625 26.0282 78.4875 26.0282C77.6125 26.0282 77.0875 25.6782 76.65 24.8907L81.6375 22.7907L81.4625 22.3532ZM76.3875 23.5782C76.3875 22.1782 77.525 21.3907 78.3125 21.3907C78.925 21.3907 79.5375 21.7407 79.7125 22.1782L76.3875 23.5782ZM72.275 27.1657H73.9375V16.2282H72.275V27.1657ZM69.65 20.7782C69.2125 20.3407 68.5125 19.9032 67.6375 19.9032C65.8 19.9032 64.05 21.5657 64.05 23.6657C64.05 25.7657 65.7125 27.3407 67.6375 27.3407C68.5125 27.3407 69.2125 26.9032 69.5625 26.4657H69.65V26.9907C69.65 28.3907 68.8625 29.1782 67.6375 29.1782C66.675 29.1782 65.975 28.4782 65.8 27.8657L64.4 28.4782C64.8375 29.4407 65.8875 30.6657 67.725 30.6657C69.65 30.6657 71.225 29.5282 71.225 26.8157V20.1657H69.65V20.7782ZM67.725 25.9407C66.5875 25.9407 65.625 24.9782 65.625 23.6657C65.625 22.3532 66.5875 21.3907 67.725 21.3907C68.8625 21.3907 69.7375 22.3532 69.7375 23.6657C69.7375 24.9782 68.8625 25.9407 67.725 25.9407ZM89.075 16.2282H85.1375V27.1657H86.8V23.0532H89.075C90.9125 23.0532 92.6625 21.7407 92.6625 19.6407C92.6625 17.5407 90.9125 16.2282 89.075 16.2282ZM89.1625 21.4782H86.8V17.7157H89.1625C90.3875 17.7157 91.0875 18.7657 91.0875 19.5532C91 20.5157 90.3 21.4782 89.1625 21.4782ZM99.225 19.9032C98 19.9032 96.775 20.4282 96.3375 21.5657L97.825 22.1782C98.175 21.5657 98.7 21.3907 99.3125 21.3907C100.187 21.3907 100.975 21.9157 101.062 22.7907V22.8782C100.8 22.7032 100.1 22.4407 99.4 22.4407C97.825 22.4407 96.25 23.3157 96.25 24.8907C96.25 26.3782 97.5625 27.3407 98.9625 27.3407C100.1 27.3407 100.625 26.8157 101.062 26.2907H101.15V27.1657H102.725V22.9657C102.55 21.0407 101.062 19.9032 99.225 19.9032ZM99.05 25.9407C98.525 25.9407 97.7375 25.6782 97.7375 24.9782C97.7375 24.1032 98.7 23.8407 99.4875 23.8407C100.187 23.8407 100.537 24.0157 100.975 24.1907C100.8 25.2407 99.925 25.9407 99.05 25.9407ZM108.237 20.1657L106.4 24.8907H106.312L104.387 20.1657H102.637L105.525 26.8157L103.862 30.4907H105.525L109.987 20.1657H108.237ZM93.5375 27.1657H95.2V16.2282H93.5375V27.1657Z" fill="white"/>
<path d="M9.10006 7.47803C8.83756 7.74053 8.75006 8.17803 8.75006 8.70303V28.0405C8.75006 28.5655 8.92506 29.003 9.18756 29.2655L9.27506 29.353L20.1251 18.503V18.328L9.10006 7.47803Z" fill="url(#paint0_linear_4655_19077)"/>
<path d="M23.6251 22.1782L20.0376 18.5907V18.3282L23.6251 14.7407L23.7126 14.8282L28.0001 17.2782C29.2251 17.9782 29.2251 19.1157 28.0001 19.8157L23.6251 22.1782Z" fill="url(#paint1_linear_4655_19077)"/>
<path d="M23.7125 22.0908L20.0375 18.4158L9.10004 29.3533C9.53754 29.7908 10.15 29.7908 10.9375 29.4408L23.7125 22.0908Z" fill="url(#paint2_linear_4655_19077)"/>
<path d="M23.7125 14.7408L10.9375 7.47831C10.15 7.04081 9.53754 7.12831 9.10004 7.56581L20.0375 18.4158L23.7125 14.7408Z" fill="url(#paint3_linear_4655_19077)"/>
<path opacity="0.2" d="M23.625 22.0032L10.9375 29.1782C10.2375 29.6157 9.62504 29.5282 9.18754 29.1782L9.10004 29.2657L9.18754 29.3532C9.62504 29.7032 10.2375 29.7907 10.9375 29.3532L23.625 22.0032Z" fill="black"/>
<path opacity="0.12" d="M9.10006 29.1783C8.83756 28.9158 8.75006 28.4783 8.75006 27.9533V28.0408C8.75006 28.5658 8.92506 29.0033 9.18756 29.2658V29.1783H9.10006ZM28.0001 19.5533L23.6251 22.0033L23.7126 22.0908L28.0001 19.6408C28.6126 19.2908 28.8751 18.8533 28.8751 18.4158C28.8751 18.8533 28.5251 19.2033 28.0001 19.5533Z" fill="black"/>
<path opacity="0.25" d="M10.9375 7.56564L28 17.2781C28.525 17.6281 28.875 17.9781 28.875 18.4156C28.875 17.9781 28.6125 17.5406 28 17.1906L10.9375 7.47814C9.71253 6.77814 8.75003 7.30314 8.75003 8.70314V8.79064C8.75003 7.47814 9.71253 6.86564 10.9375 7.56564Z" fill="white"/>
<defs>
<linearGradient id="paint0_linear_4655_19077" x1="19.0751" y1="8.53678" x2="4.38994" y2="23.221" gradientUnits="userSpaceOnUse">
<stop stop-color="#00A0FF"/>
<stop offset="0.007" stop-color="#00A1FF"/>
<stop offset="0.26" stop-color="#00BEFF"/>
<stop offset="0.512" stop-color="#00D2FF"/>
<stop offset="0.76" stop-color="#00DFFF"/>
<stop offset="1" stop-color="#00E3FF"/>
</linearGradient>
<linearGradient id="paint1_linear_4655_19077" x1="29.6048" y1="18.4166" x2="8.43244" y2="18.4166" gradientUnits="userSpaceOnUse">
<stop stop-color="#FFE000"/>
<stop offset="0.409" stop-color="#FFBD00"/>
<stop offset="0.775" stop-color="#FFA500"/>
<stop offset="1" stop-color="#FF9C00"/>
</linearGradient>
<linearGradient id="paint2_linear_4655_19077" x1="21.7237" y1="20.4248" x2="1.81041" y2="40.338" gradientUnits="userSpaceOnUse">
<stop stop-color="#FF3A44"/>
<stop offset="1" stop-color="#C31162"/>
</linearGradient>
<linearGradient id="paint3_linear_4655_19077" x1="6.38491" y1="1.06981" x2="15.2775" y2="9.96243" gradientUnits="userSpaceOnUse">
<stop stop-color="#32A071"/>
<stop offset="0.069" stop-color="#2DA771"/>
<stop offset="0.476" stop-color="#15CF74"/>
<stop offset="0.801" stop-color="#06E775"/>
<stop offset="1" stop-color="#00F076"/>
</linearGradient>
</defs>
</svg>
