<svg width="21" height="20" viewBox="0 0 21 20" fill="none" xmlns="http://www.w3.org/2000/svg">
<path d="M1.69684 18.3333H18.665" stroke="#C4C4C4" stroke-width="1.5" stroke-miterlimit="10" stroke-linecap="round" stroke-linejoin="round"/>
<path d="M2.50281 18.3333L2.54523 8.30833C2.54523 7.79999 2.79127 7.3167 3.1985 7.00004L9.13735 2.45836C9.7482 1.99169 10.6051 1.99169 11.2244 2.45836L17.1633 6.9917C17.579 7.30836 17.8166 7.79166 17.8166 8.30833V18.3333" stroke="#C4C4C4" stroke-width="1.5" stroke-miterlimit="10" stroke-linejoin="round"/>
<path d="M11.0293 14.1667H9.33249C8.62831 14.1667 8.05988 14.725 8.05988 15.4167V18.3333H12.3019V15.4167C12.3019 14.725 11.7335 14.1667 11.0293 14.1667Z" stroke="#C4C4C4" stroke-width="1.5" stroke-miterlimit="10" stroke-linejoin="round"/>
<path d="M8.05987 11.4583H6.36306C5.89643 11.4583 5.51465 11.0833 5.51465 10.625V9.375C5.51465 8.91667 5.89643 8.54167 6.36306 8.54167H8.05987C8.5265 8.54167 8.90828 8.91667 8.90828 9.375V10.625C8.90828 11.0833 8.5265 11.4583 8.05987 11.4583Z" stroke="#C4C4C4" stroke-width="1.5" stroke-miterlimit="10" stroke-linejoin="round"/>
<path d="M13.9987 11.4583H12.3019C11.8353 11.4583 11.4535 11.0833 11.4535 10.625V9.375C11.4535 8.91667 11.8353 8.54167 12.3019 8.54167H13.9987C14.4653 8.54167 14.8471 8.91667 14.8471 9.375V10.625C14.8471 11.0833 14.4653 11.4583 13.9987 11.4583Z" stroke="#C4C4C4" stroke-width="1.5" stroke-miterlimit="10" stroke-linejoin="round"/>
<path d="M16.1198 5.83333L16.0943 3.33334H12.3613" stroke="#C4C4C4" stroke-width="1.5" stroke-miterlimit="10" stroke-linecap="round" stroke-linejoin="round"/>
</svg>
