<svg width="24" height="24" viewBox="0 0 24 24" fill="none" xmlns="http://www.w3.org/2000/svg">
<path d="M2 21.6091H22" stroke="#E7513B" stroke-width="1.5" stroke-miterlimit="10" stroke-linecap="round" stroke-linejoin="round"/>
<path d="M2.9502 21.6092L3.00019 9.79287C3.00019 9.19371 3.2902 8.62406 3.7702 8.25081L10.7702 2.89763C11.4902 2.34758 12.5002 2.34758 13.2302 2.89763L20.2302 8.24098C20.7202 8.61423 21.0002 9.18388 21.0002 9.79287V21.6092" stroke="#E7513B" stroke-width="1.5" stroke-miterlimit="10" stroke-linejoin="round"/>
<path d="M13 16.698H11C10.17 16.698 9.5 17.3561 9.5 18.1713V21.6091H14.5V18.1713C14.5 17.3561 13.83 16.698 13 16.698Z" stroke="#E7513B" stroke-width="1.5" stroke-miterlimit="10" stroke-linejoin="round"/>
<path d="M9.5 13.5057H7.5C6.95 13.5057 6.5 13.0637 6.5 12.5235V11.0501C6.5 10.5099 6.95 10.0679 7.5 10.0679H9.5C10.05 10.0679 10.5 10.5099 10.5 11.0501V12.5235C10.5 13.0637 10.05 13.5057 9.5 13.5057Z" stroke="#E7513B" stroke-width="1.5" stroke-miterlimit="10" stroke-linejoin="round"/>
<path d="M16.4999 13.5057H14.4999C13.9499 13.5057 13.4999 13.0637 13.4999 12.5235V11.0501C13.4999 10.5099 13.9499 10.0679 14.4999 10.0679H16.4999C17.0499 10.0679 17.4999 10.5099 17.4999 11.0501V12.5235C17.4999 13.0637 17.0499 13.5057 16.4999 13.5057Z" stroke="#E7513B" stroke-width="1.5" stroke-miterlimit="10" stroke-linejoin="round"/>
<path d="M19.0001 6.87565L18.9701 3.92895H14.5701" stroke="#E7513B" stroke-width="1.5" stroke-miterlimit="10" stroke-linecap="round" stroke-linejoin="round"/>
</svg>
