<svg width="24" height="24" viewBox="0 0 24 24" fill="none" xmlns="http://www.w3.org/2000/svg">
<path fill-rule="evenodd" clip-rule="evenodd" d="M18.6248 1.67422C17.489 1.67422 16.5786 2.58301 16.5786 3.71678C16.5786 4.80829 17.4196 5.68797 18.4841 5.7569C18.5734 5.74899 18.6649 5.74899 18.7542 5.7569C19.8169 5.68804 20.6615 4.80949 20.6709 3.71379C20.6693 2.59043 19.7574 1.67422 18.6248 1.67422ZM14.9015 3.71678C14.9015 1.65836 16.5627 0 18.6248 0C20.6889 0 22.348 1.67164 22.348 3.71678V3.72276H22.348C22.3336 5.73063 20.7504 7.36087 18.7557 7.43301C18.7101 7.43466 18.6644 7.43259 18.6192 7.42682C18.5739 7.43259 18.5282 7.43466 18.4826 7.43301C16.489 7.36091 14.9015 5.73035 14.9015 3.71678Z" fill="#E7513B"/>
<path fill-rule="evenodd" clip-rule="evenodd" d="M17.3955 8.48409C19.0954 8.18683 21.0336 8.47024 22.4427 9.4036L22.4442 9.4046C23.4073 10.0456 24 10.9743 24 12.0097C24 13.0452 23.4073 13.9739 22.4442 14.6149C21.0456 15.5493 19.1305 15.8317 17.4349 15.5475C16.9782 15.471 16.6701 15.0393 16.7467 14.5834C16.8234 14.1274 17.2558 13.8199 17.7126 13.8964C19.08 14.1256 20.5408 13.8725 21.5124 13.2228L21.5139 13.2218C22.1273 12.8136 22.3229 12.3583 22.3229 12.0097C22.3229 11.6613 22.1275 11.2063 21.5147 10.7982C20.531 10.147 19.0483 9.89478 17.6849 10.1332C17.2287 10.213 16.7941 9.90849 16.7142 9.4531C16.6343 8.99771 16.9393 8.56387 17.3955 8.48409Z" fill="#E7513B"/>
<path fill-rule="evenodd" clip-rule="evenodd" d="M1.65198 3.71678C1.65198 1.67164 3.31112 0 5.37525 0C7.43727 0 9.09852 1.65836 9.09852 3.71678C9.09852 5.73035 7.51099 7.36091 5.51742 7.43301C5.47178 7.43466 5.4261 7.43259 5.38084 7.42682C5.33557 7.43259 5.2899 7.43466 5.24426 7.43301C3.24964 7.36087 1.66637 5.73063 1.652 3.72276L1.65198 3.71678ZM3.32913 3.7138C3.33849 4.80949 4.18311 5.68804 5.24583 5.7569C5.33512 5.74899 5.42657 5.74899 5.51586 5.7569C6.58041 5.68797 7.42137 4.80829 7.42137 3.71678C7.42137 2.58301 6.511 1.67422 5.37525 1.67422C4.24262 1.67422 3.33074 2.59044 3.32913 3.7138Z" fill="#E7513B"/>
<path fill-rule="evenodd" clip-rule="evenodd" d="M2.48536 10.7981C3.46902 10.1469 4.95173 9.89478 6.31512 10.1332C6.7713 10.213 7.2059 9.90849 7.28581 9.4531C7.36573 8.99771 7.0607 8.56387 6.60452 8.48409C4.90465 8.18683 2.96639 8.47024 1.55732 9.4036L1.55731 9.4036L1.55581 9.4046C0.592693 10.0456 0 10.9743 0 12.0097C0 13.0449 0.592382 13.9734 1.55505 14.6144C2.95375 15.5492 4.86922 15.8318 6.56511 15.5475C7.02185 15.471 7.32995 15.0393 7.25327 14.5834C7.1766 14.1274 6.74417 13.8199 6.28743 13.8964C4.92004 14.1256 3.45924 13.8725 2.48764 13.2228L2.48612 13.2218C1.87272 12.8136 1.67715 12.3583 1.67715 12.0097C1.67715 11.6613 1.87255 11.2062 2.48536 10.7981Z" fill="#E7513B"/>
<path fill-rule="evenodd" clip-rule="evenodd" d="M11.9161 10.0119C10.7804 10.0119 9.87002 10.9207 9.87002 12.0544C9.87002 13.1459 10.711 14.0256 11.7755 14.0945C11.8661 14.0865 11.9588 14.0866 12.0493 14.0949C13.1034 14.0346 13.9529 13.153 13.9623 12.0514C13.9606 10.9281 13.0488 10.0119 11.9161 10.0119ZM8.19287 12.0544C8.19287 9.99601 9.85412 8.33765 11.9161 8.33765C13.9803 8.33765 15.6394 10.0093 15.6394 12.0544V12.0604H15.6394C15.6251 14.0629 14.0458 15.7128 12.0411 15.7709C11.9974 15.7721 11.9538 15.77 11.9105 15.7645C11.8653 15.7702 11.8196 15.7723 11.774 15.7707C9.7804 15.6986 8.19287 14.068 8.19287 12.0544Z" fill="#E7513B"/>
<path fill-rule="evenodd" clip-rule="evenodd" d="M12.021 16.7256C13.3275 16.7256 14.6791 17.0504 15.7356 17.7535C16.6988 18.3945 17.2915 19.3232 17.2915 20.3587C17.2915 21.3939 16.6989 22.3226 15.736 22.9635C14.675 23.6716 13.3239 24.0001 12.0168 24.0001C10.7098 24.0001 9.35866 23.6716 8.29763 22.9635C7.33473 22.3226 6.74219 21.3939 6.74219 20.3587C6.74219 19.3232 7.33488 18.3945 8.29799 17.7535L8.30001 17.7522L8.30001 17.7522C9.36107 17.0505 10.7143 16.7256 12.021 16.7256ZM9.22732 19.1472C8.61469 19.5553 8.41934 20.0102 8.41934 20.3587C8.41934 20.7073 8.6149 21.1625 9.22831 21.5707L9.22931 21.5714C9.95714 22.0573 10.9649 22.3259 12.0168 22.3259C13.0687 22.3259 14.0765 22.0573 14.8043 21.5714L14.8053 21.5707C15.4187 21.1625 15.6143 20.7073 15.6143 20.3587C15.6143 20.01 15.4187 19.5548 14.8053 19.1466C14.0841 18.6666 13.0765 18.3998 12.021 18.3998C10.9663 18.3998 9.95515 18.6662 9.22732 19.1472Z" fill="#E7513B"/>
</svg>
