<svg width="16" height="16" viewBox="0 0 16 16" fill="none" xmlns="http://www.w3.org/2000/svg">
<path d="M12 12.5734H11.4933C10.96 12.5734 10.4533 12.7801 10.08 13.1534L8.93998 14.2801C8.41998 14.7934 7.57334 14.7934 7.05334 14.2801L5.91333 13.1534C5.54 12.7801 5.02667 12.5734 4.5 12.5734H4C2.89333 12.5734 2 11.6868 2 10.5934V3.32007C2 2.22674 2.89333 1.34009 4 1.34009H12C13.1067 1.34009 14 2.22674 14 3.32007V10.5934C14 11.6801 13.1067 12.5734 12 12.5734Z" stroke="#838383" stroke-miterlimit="10" stroke-linecap="round" stroke-linejoin="round"/>
<path d="M8 6.66671C8.85788 6.66671 9.55334 5.97124 9.55334 5.11336C9.55334 4.25548 8.85788 3.56006 8 3.56006C7.14212 3.56006 6.44666 4.25548 6.44666 5.11336C6.44666 5.97124 7.14212 6.66671 8 6.66671Z" stroke="#838383" stroke-linecap="round" stroke-linejoin="round"/>
<path d="M10.6666 10.4399C10.6666 9.2399 9.47331 8.2666 7.99998 8.2666C6.52665 8.2666 5.33331 9.2399 5.33331 10.4399" stroke="#838383" stroke-linecap="round" stroke-linejoin="round"/>
</svg>
