<svg width="109" height="109" viewBox="0 0 109 109" fill="none" xmlns="http://www.w3.org/2000/svg">
<path d="M40.8886 40.6638L44.2676 41.0862L45.7851 28.9531H56.4024L57.9199 41.0862L61.2989 40.6638L59.6996 27.8648L63.0156 24.5488V6.8125C63.0156 4.09091 60.6278 1.70312 57.9062 1.70312H47.6875C44.9659 1.70312 42.5781 4.09091 42.5781 6.8125V8.51562C40.6996 8.51562 39.1719 10.0433 39.1719 11.9219V24.5488L42.4879 27.8648L40.8886 40.6638ZM42.5781 11.9219H45.9844V18.7344H49.3906V11.9219C49.3906 10.0433 47.8629 8.51562 45.9844 8.51562V6.8125C45.9844 5.95242 46.8274 5.10938 47.6875 5.10938H57.9062C58.7663 5.10938 59.6094 5.95242 59.6094 6.8125V23.1387L57.2012 25.5469H44.9863L42.5781 23.1387V11.9219Z" fill="#717171"/>
<path d="M27.2636 71.7424L30.6426 71.3201L29.0434 58.5211L32.3594 55.2051V37.4688C32.3594 34.7472 29.9716 32.3594 27.25 32.3594H17.0312C14.3097 32.3594 11.9219 34.7472 11.9219 37.4688V39.1719C10.0433 39.1719 8.51562 40.6996 8.51562 42.5781V55.2051L11.8418 58.5313L8.52584 88.3752L11.9117 88.7515L15.151 59.6094H25.7478L27.2636 71.7424ZM14.3301 56.2031L11.9219 53.7949V42.5781H15.3281V49.3906H18.7344V42.5781C18.7344 40.6996 17.2067 39.1719 15.3281 39.1719V37.4688C15.3281 36.6087 16.1712 35.7656 17.0312 35.7656H27.25C28.1101 35.7656 28.9531 36.6087 28.9531 37.4688V53.7949L26.5449 56.2031H14.3301Z" fill="#717171"/>
<path d="M69.8366 61.1422L73.2259 61.4811L74.7757 45.9827H85.3725L90.281 81.9782L93.6565 81.5167L88.6613 44.8842L91.9687 41.5801V23.8438C91.9687 21.1222 89.581 18.7344 86.8594 18.7344H76.6406C73.919 18.7344 71.5312 21.1222 71.5312 23.8438V25.5469C69.6527 25.5469 68.125 27.0746 68.125 28.9531V41.5801L71.4597 44.9148L69.8366 61.1422ZM71.5312 28.9531H74.9375V35.7656H78.3437V28.9531C78.3437 27.0746 76.816 25.5469 74.9375 25.5469V23.8438C74.9375 22.9837 75.7805 22.1406 76.6406 22.1406H86.8594C87.7195 22.1406 88.5625 22.9837 88.5625 23.8438V40.1699L86.1543 42.5781H73.9395L71.5312 40.1699V28.9531Z" fill="#717171"/>
<path d="M90.2656 85.1561H77.7204C77.9231 82.4294 77.5501 79.4268 76.5691 76.1517C72.5974 62.9099 63.5674 59.2805 58.9843 58.2859L63.3818 50.9556L62.6426 50.0308C55.1438 40.6568 40.8818 45.8684 40.2755 46.0932L38.1483 46.892L40.4782 50.0002L34.3146 52.0541L43.3343 61.0722C38.8687 64.3916 27.8853 74.2902 32.2878 88.564H23.8438C20.7883 88.564 18.7344 90.618 18.7344 93.6734V95.3765C18.7344 98.432 20.7883 100.486 23.8438 100.486H30.6562C31.4363 100.486 32.3594 101.409 32.3594 102.189C32.3594 104.863 34.7948 107.298 37.4688 107.298H74.9375C78.233 107.298 80.0469 105.485 80.0469 102.189V98.7828C80.0469 97.9227 80.8899 97.0797 81.75 97.0797H90.2656C93.132 97.0797 95.375 94.835 95.375 91.9703V90.2672C95.375 87.4008 93.132 85.1561 90.2656 85.1561ZM40.6229 53.541L42.6343 52.8699L44.6219 55.5217L47.3469 53.478L43.7107 48.6292C47.3707 47.7401 54.6788 46.7438 59.2091 51.2894L55.1472 58.0577L46.5685 59.4883L40.6229 53.541ZM46.5941 62.9371L56.3189 61.3174C57.4566 61.3634 68.8284 62.2065 73.3042 77.131C74.8762 82.3681 74.7263 86.7042 72.8597 90.0185C70.4906 94.2235 66.0438 95.4157 66.008 95.4259C65.7508 95.4907 40.2278 101.678 35.6754 88.0242C30.8572 73.5595 44.4652 64.2826 46.5941 62.9371ZM91.9688 91.9686C91.9688 92.9564 91.2517 93.6717 90.2656 93.6717H81.75C78.9807 93.6717 76.6406 96.0118 76.6406 98.7811V102.187C76.6406 103.604 76.3545 103.89 74.9375 103.89H37.4688C36.7057 103.89 35.7656 102.952 35.7656 102.187C35.7656 99.5134 33.3302 97.078 30.6562 97.078H23.8438C22.6669 97.078 22.1406 96.5517 22.1406 95.3748V93.6717C22.1406 92.4949 22.6669 91.9686 23.8438 91.9686H33.7576C37.697 98.65 46.09 100.314 53.4475 100.312C60.3332 100.312 66.3027 98.8628 66.834 98.73C67.0725 98.6704 72.6877 97.2125 75.7993 91.7404C76.3664 90.744 76.8041 89.6813 77.1294 88.5606H90.2656C91.2517 88.5606 91.9688 89.276 91.9688 90.2638V91.9686Z" fill="#717171"/>
<path d="M55.0099 88.3527C54.7303 88.4514 54.2697 88.4514 53.99 88.3527C51.6047 87.5385 46.2749 84.1415 46.2749 78.3839C46.2749 75.8424 48.3229 73.7861 50.848 73.7861C52.345 73.7861 53.6692 74.5099 54.5 75.6285C55.3307 74.5099 56.6632 73.7861 58.1519 73.7861C60.677 73.7861 62.725 75.8424 62.725 78.3839C62.725 84.1415 57.3952 87.5385 55.0099 88.3527Z" stroke="#717171" stroke-width="3" stroke-linecap="round" stroke-linejoin="round"/>
</svg>
