<svg width="46" height="46" viewBox="0 0 46 46" fill="none" xmlns="http://www.w3.org/2000/svg">
<rect width="46" height="46" rx="23" fill="#FCAE03"/>
<path d="M27.6666 19.6667C28.9552 19.6667 29.9999 18.622 29.9999 17.3333C29.9999 16.0447 28.9552 15 27.6666 15C26.3779 15 25.3333 16.0447 25.3333 17.3333C25.3333 18.622 26.3779 19.6667 27.6666 19.6667Z" stroke="white" stroke-width="1.5" stroke-linecap="round" stroke-linejoin="round"/>
<path d="M18.3333 24.7775C19.6219 24.7775 20.6666 23.7328 20.6666 22.4442C20.6666 21.1555 19.6219 20.1108 18.3333 20.1108C17.0446 20.1108 15.9999 21.1555 15.9999 22.4442C15.9999 23.7328 17.0446 24.7775 18.3333 24.7775Z" stroke="white" stroke-width="1.5" stroke-linecap="round" stroke-linejoin="round"/>
<path d="M27.6666 30.5553C28.9552 30.5553 29.9999 29.5107 29.9999 28.222C29.9999 26.9333 28.9552 25.8887 27.6666 25.8887C26.3779 25.8887 25.3333 26.9333 25.3333 28.222C25.3333 29.5107 26.3779 30.5553 27.6666 30.5553Z" stroke="white" stroke-width="1.5" stroke-linecap="round" stroke-linejoin="round"/>
<path d="M20.3479 23.9521L25.6601 27.0477" stroke="white" stroke-width="1.5" stroke-linecap="round" stroke-linejoin="round"/>
<path d="M25.6523 18.5078L20.3479 21.6034" stroke="white" stroke-width="1.5" stroke-linecap="round" stroke-linejoin="round"/>
</svg>
